<mxfile host="app.diagrams.net" modified="2023-07-25T23:02:39.817Z" agent="Mozilla/5.0 (Windows NT 10.0; Win64; x64) AppleWebKit/537.36 (KHTML, like Gecko) Chrome/109.0.0.0 Safari/537.36" etag="qiMLPRud-OFzi5nY7eAH" version="21.6.5" type="github">
  <diagram name="PÃ¡gina-1" id="f3fRDEZUygr4VYhqCRq_">
    <mxGraphModel dx="1365" dy="484" grid="1" gridSize="10" guides="1" tooltips="1" connect="1" arrows="1" fold="1" page="1" pageScale="1" pageWidth="827" pageHeight="1169" math="0" shadow="0">
      <root>
        <mxCell id="0" />
        <mxCell id="1" parent="0" />
        <mxCell id="4fnEt_KU8LIZkgfa0ZWP-1" value="" style="whiteSpace=wrap;html=1;aspect=fixed;labelBackgroundColor=none;" parent="1" vertex="1">
          <mxGeometry x="-670" y="190" width="80" height="80" as="geometry" />
        </mxCell>
        <mxCell id="4fnEt_KU8LIZkgfa0ZWP-2" value="restauran" style="rounded=1;whiteSpace=wrap;html=1;labelBackgroundColor=none;" parent="1" vertex="1">
          <mxGeometry x="-490" width="120" height="60" as="geometry" />
        </mxCell>
        <mxCell id="4fnEt_KU8LIZkgfa0ZWP-37" value="" style="edgeStyle=orthogonalEdgeStyle;rounded=0;orthogonalLoop=1;jettySize=auto;html=1;labelBackgroundColor=none;fontColor=default;" parent="1" source="4fnEt_KU8LIZkgfa0ZWP-5" target="4fnEt_KU8LIZkgfa0ZWP-16" edge="1">
          <mxGeometry relative="1" as="geometry" />
        </mxCell>
        <mxCell id="4fnEt_KU8LIZkgfa0ZWP-5" value="&lt;h5&gt;pedido&lt;/h5&gt;" style="rounded=1;whiteSpace=wrap;html=1;align=left;labelBackgroundColor=none;" parent="1" vertex="1">
          <mxGeometry x="-490" y="190" width="120" height="60" as="geometry" />
        </mxCell>
        <mxCell id="4fnEt_KU8LIZkgfa0ZWP-36" value="" style="edgeStyle=orthogonalEdgeStyle;rounded=0;orthogonalLoop=1;jettySize=auto;html=1;labelBackgroundColor=none;fontColor=default;" parent="1" source="4fnEt_KU8LIZkgfa0ZWP-7" target="4fnEt_KU8LIZkgfa0ZWP-5" edge="1">
          <mxGeometry relative="1" as="geometry" />
        </mxCell>
        <mxCell id="4fnEt_KU8LIZkgfa0ZWP-7" value="" style="rounded=1;whiteSpace=wrap;html=1;labelBackgroundColor=none;" parent="1" vertex="1">
          <mxGeometry x="-490" y="280" width="120" height="60" as="geometry" />
        </mxCell>
        <mxCell id="4fnEt_KU8LIZkgfa0ZWP-40" value="" style="edgeStyle=orthogonalEdgeStyle;rounded=0;orthogonalLoop=1;jettySize=auto;html=1;labelBackgroundColor=none;fontColor=default;" parent="1" source="4fnEt_KU8LIZkgfa0ZWP-16" target="4fnEt_KU8LIZkgfa0ZWP-2" edge="1">
          <mxGeometry relative="1" as="geometry" />
        </mxCell>
        <mxCell id="4fnEt_KU8LIZkgfa0ZWP-16" value="cocina&lt;br&gt;chef&lt;br&gt;ayudante de cocina" style="whiteSpace=wrap;html=1;labelBackgroundColor=none;" parent="1" vertex="1">
          <mxGeometry x="-490" y="100" width="120" height="60" as="geometry" />
        </mxCell>
        <mxCell id="4fnEt_KU8LIZkgfa0ZWP-23" value="" style="whiteSpace=wrap;html=1;shape=ellipse;perimeter=ellipsePerimeter;rounded=1;labelBackgroundColor=none;" parent="1" vertex="1">
          <mxGeometry x="-490" y="410" width="120" height="60" as="geometry" />
        </mxCell>
        <mxCell id="4fnEt_KU8LIZkgfa0ZWP-50" value="" style="edgeStyle=orthogonalEdgeStyle;rounded=0;orthogonalLoop=1;jettySize=auto;html=1;labelBackgroundColor=none;fontColor=default;" parent="1" source="4fnEt_KU8LIZkgfa0ZWP-41" edge="1">
          <mxGeometry relative="1" as="geometry">
            <mxPoint x="-460" y="435" as="targetPoint" />
          </mxGeometry>
        </mxCell>
        <mxCell id="4fnEt_KU8LIZkgfa0ZWP-51" value="" style="edgeStyle=orthogonalEdgeStyle;rounded=0;orthogonalLoop=1;jettySize=auto;html=1;labelBackgroundColor=none;fontColor=default;" parent="1" source="4fnEt_KU8LIZkgfa0ZWP-41" target="4fnEt_KU8LIZkgfa0ZWP-46" edge="1">
          <mxGeometry relative="1" as="geometry" />
        </mxCell>
        <mxCell id="4fnEt_KU8LIZkgfa0ZWP-41" value="cliente" style="shape=umlActor;verticalLabelPosition=bottom;verticalAlign=top;html=1;outlineConnect=0;labelBackgroundColor=none;" parent="1" vertex="1">
          <mxGeometry x="-435" y="420" width="10" height="30" as="geometry" />
        </mxCell>
        <mxCell id="4fnEt_KU8LIZkgfa0ZWP-46" value="funcionario" style="shape=umlActor;verticalLabelPosition=bottom;verticalAlign=top;html=1;outlineConnect=0;labelBackgroundColor=none;" parent="1" vertex="1">
          <mxGeometry x="-435" y="310" width="10" height="30" as="geometry" />
        </mxCell>
        <mxCell id="nd2Ps_qPtYg52iipuBvt-1" value="" style="ellipse;whiteSpace=wrap;html=1;strokeWidth=2;fillWeight=2;hachureGap=8;fillColor=#990000;fillStyle=dots;sketch=1;" vertex="1" parent="1">
          <mxGeometry x="-438" y="205" width="50" height="30" as="geometry" />
        </mxCell>
      </root>
    </mxGraphModel>
  </diagram>
</mxfile>
